<svg id="Слой_1" data-name="Слой 1" xmlns="http://www.w3.org/2000/svg" viewBox="0 0 1000 1000"><defs><style>.cls-1{fill:#004890;}.cls-2{fill:none;stroke:#fff;stroke-linecap:round;stroke-linejoin:round;stroke-width:27px;}.cls-3{fill:#fff;}</style></defs><rect class="cls-1" width="1000" height="1000" rx="180"/><polyline class="cls-2" points="394.86 194.92 194.86 194.92 194.86 394.92"/><polyline class="cls-2" points="394.86 805.21 194.86 805.21 194.86 605.21"/><polyline class="cls-2" points="605.14 194.92 805.14 194.92 805.14 394.92"/><polyline class="cls-2" points="605.14 805.21 805.14 805.21 805.14 605.21"/><path class="cls-3" d="M497.7,704.4c-4.94-2.84-10-5.56-14.82-8.55-30.6-18.91-63.67-31.23-99.29-36-16.57-2.23-33.34-3-50-4.05-9.42-.61-13.86-4.75-13.88-14.15,0-10.91-.07-21.82,0-32.73a4.14,4.14,0,0,0-2.79-4.47c-13.16-6.26-20.33-16.83-21.07-31.35a253.54,253.54,0,0,1,0-26.73c.8-14.35,8-24.8,21-31,2.1-1,2.92-2,2.89-4.39-.13-11-.08-22.09,0-33.13,0-9.07,4.78-13.79,13.78-13.74a384.91,384.91,0,0,1,65.09,5.79c1.26.22,3.11.1,4-.67A112.35,112.35,0,0,1,446,444.53c-24.15-22.44-34.19-49.61-27.84-81.79,4.2-21.31,15.77-38.33,33.28-51.32,32.31-24,78.52-20.42,107.63,8.87,17.25,17.36,25.6,38.62,24.66,63.14-.93,24.35-11.2,44.46-29.49,60.81,5.34,2.16,10.29,4,15.08,6.13a108.21,108.21,0,0,1,27.87,18.35,6.11,6.11,0,0,0,4.54,1.12,389.78,389.78,0,0,1,64.69-5.75c9.35-.06,14.08,4.55,14.1,13.83,0,11,0,22.08.09,33.12,0,1.29.81,3.27,1.8,3.72,11.76,5.37,18.86,14.33,21.49,26.93a9.12,9.12,0,0,0,.58,1.43v33.53a8.4,8.4,0,0,0-.58,1.43c-2.61,12.59-9.73,21.53-21.46,26.92-1,.46-1.81,2.42-1.83,3.7-.14,10.9-.07,21.8-.09,32.7,0,9.7-4.37,13.79-14,14.4-16.69,1.06-33.45,1.83-50,4.06-35.6,4.79-68.64,17.09-99.21,36-4.85,3-9.87,5.71-14.81,8.55ZM343.61,632c51.36,1.37,99.57,13.27,144.3,38.88.13-1.25.2-1.65.2-2q0-67.85.09-135.68c0-2.53-1.24-3.43-3-4.52-28.79-17.82-59.76-30.1-93.22-35.48-15.82-2.54-31.84-3.86-48.35-5.8,0,9.14-.08,17.22.11,25.29,0,.86,1.48,2,2.5,2.47,13.73,6.71,20.8,17.75,21.28,32.93.23,7.31.08,14.63,0,21.95-.07,16-7.05,27.71-21.62,34.75a4.35,4.35,0,0,0-2.22,3.06C343.52,615.67,343.61,623.5,343.61,632Zm313-143.52a9.86,9.86,0,0,0-1.55-.25,335.08,335.08,0,0,0-56.56,6.67,261.46,261.46,0,0,0-83.09,33.49c-2.46,1.52-3.38,3-3.37,5.92q.15,66,.07,132.09V671a290.31,290.31,0,0,1,70-28.76c24.33-6.41,49.19-9.46,74.53-10.31,0-8.54.09-16.51-.12-24.47,0-1-1.44-2.31-2.53-2.85-13.7-6.75-20.78-17.77-21.25-33-.23-7.44-.12-14.89,0-22.34.18-15.85,7.18-27.41,21.63-34.31.92-.43,2.17-1.5,2.19-2.29C656.64,504.66,656.58,496.58,656.58,488.51ZM500.3,440.1A60.05,60.05,0,0,0,560,379.93c-.18-33.32-27.22-60.5-60.07-60.36S440.17,347,440.23,380.32A60.06,60.06,0,0,0,500.3,440.1Zm69.25,37.51c-13.45-8.55-27.25-13.05-42.14-13.37-18.21-.4-36.45-.28-54.66,0a76.27,76.27,0,0,0-30.46,7.1c-3.77,1.71-7.37,3.81-11.83,6.14,1.59.66,2.16.94,2.75,1.13a287.05,287.05,0,0,1,64.57,29.82c2,1.23,3.25.67,5-.23,15.38-7.81,30.71-15.72,46.27-23.13C555.34,482.05,562.18,480.24,569.55,477.61ZM319.67,559.88c0,4-.11,8,0,12,.24,6.86,5.4,11.95,11.94,12a11.9,11.9,0,0,0,11.92-11.95q.26-12,0-23.94a11.89,11.89,0,0,0-11.92-12c-6.53,0-11.7,5.09-11.94,11.95C319.56,551.9,319.67,555.89,319.67,559.88Zm360.87.11c0-3.86.07-7.72,0-11.58-.16-7.18-5.17-12.39-11.86-12.45s-11.92,5.13-12,12.25c-.13,7.85-.14,15.7,0,23.54a11.92,11.92,0,0,0,11.83,12.06c6.69.06,11.86-5.14,12-12.25C680.62,567.7,680.54,563.84,680.54,560Z"/></svg>